name rise30.3154peak39.0474fall46.5389.mot
datacolumns 19
datarows 32
range 10.96663000000000 11.01829000000000
endheader
time	ground_force1_vx	ground_force1_vy	ground_force1_vz	ground_force1_px	ground_force1_py	ground_force1_pz	ground_force2_vx	ground_force2_vy	ground_force2_vz	ground_force2_px	ground_force2_py	ground_force2_pz	ground_torque1_x	ground_torque1_y	ground_torque1_z	ground_torque2_x	ground_torque2_y	ground_torque2_z	
10.96663000000000	-49.72714100000000	802.30483100000004	59.60784500000000	0.16078500000000	0.00000000000000	0.10920100000000	-5.93058700000000	20.87148300000000	3.67122400000000	0.00000000000000	0.00000000000000	0.00000000000000	0.00000000000000	29.44555000000000	0.00000000000000	0.00000000000000	1.33833500000000	0.00000000000000	
10.96829200000000	-49.94915500000000	798.56093799999996	59.12717400000000	0.16012500000000	0.00000000000000	0.10901100000000	-7.19847400000000	26.57572700000000	4.52643900000000	0.37635300000000	0.00000000000000	-0.07108200000000	0.00000000000000	29.22442800000000	0.00000000000000	0.00000000000000	2.84613100000000	0.00000000000000	
10.96996500000000	-50.18900000000000	794.76488800000004	58.62700400000000	0.15946300000000	0.00000000000000	0.10881600000000	-8.44236900000000	32.63479700000000	5.39043200000000	0.37896200000000	0.00000000000000	-0.07184300000000	0.00000000000000	29.00300300000000	0.00000000000000	0.00000000000000	3.41149100000000	0.00000000000000	
10.97163100000000	-50.44699000000000	790.91836400000000	58.10783300000000	0.15880000000000	0.00000000000000	0.10861600000000	-9.61687600000000	38.92591900000000	6.23656000000000	0.38140100000000	0.00000000000000	-0.07253800000000	0.00000000000000	28.78155600000000	0.00000000000000	0.00000000000000	3.97288200000000	0.00000000000000	
10.97329100000000	-50.72336800000000	787.02278799999999	57.57019400000000	0.15813800000000	0.00000000000000	0.10841200000000	-10.68080100000000	45.32975200000000	7.04002300000000	0.38370000000000	0.00000000000000	-0.07317600000000	0.00000000000000	28.56036300000000	0.00000000000000	0.00000000000000	4.51499500000000	0.00000000000000	
10.97495800000000	-51.01830700000000	783.07930199999998	57.01464900000000	0.15747700000000	0.00000000000000	0.10820200000000	-11.59985200000000	51.73937800000000	7.77952900000000	0.38588700000000	0.00000000000000	-0.07376400000000	0.00000000000000	28.33968600000000	0.00000000000000	0.00000000000000	5.02453000000000	0.00000000000000	
10.97662800000000	-51.33190100000000	779.08877700000005	56.44178800000000	0.15681900000000	0.00000000000000	0.10798800000000	-12.34848600000000	58.06721100000000	8.43847000000000	0.38798100000000	0.00000000000000	-0.07430800000000	0.00000000000000	28.11977600000000	0.00000000000000	0.00000000000000	5.49095400000000	0.00000000000000	
10.97829500000000	-51.66416800000000	775.05179999999996	55.85222600000000	0.15616400000000	0.00000000000000	0.10776900000000	-12.91078400000000	64.24932900000000	9.00556000000000	0.39000100000000	0.00000000000000	-0.07481400000000	0.00000000000000	27.90087000000000	0.00000000000000	0.00000000000000	5.90692800000000	0.00000000000000	
10.97995900000000	-52.01504900000000	770.96867699999996	55.24660100000000	0.15551200000000	0.00000000000000	0.10754500000000	-13.28041100000000	70.24719300000000	9.47493800000000	0.39195900000000	0.00000000000000	-0.07528600000000	0.00000000000000	27.68318700000000	0.00000000000000	0.00000000000000	6.26841100000000	0.00000000000000	
10.98162600000000	-52.38440100000000	766.83943499999998	54.62557400000000	0.15486600000000	0.00000000000000	0.10731600000000	-13.45980200000000	76.04698900000000	9.84580800000000	0.39386600000000	0.00000000000000	-0.07572700000000	0.00000000000000	27.46693200000000	0.00000000000000	0.00000000000000	6.57447500000000	0.00000000000000	
10.98329600000000	-52.77200300000000	762.66381999999999	53.98982400000000	0.15422600000000	0.00000000000000	0.10708300000000	-13.45876600000000	81.65705300000000	10.12173200000000	0.39573100000000	0.00000000000000	-0.07614200000000	0.00000000000000	27.25229300000000	0.00000000000000	0.00000000000000	6.82689400000000	0.00000000000000	
10.98496200000000	-53.17754700000000	758.44130299999995	53.34004600000000	0.15359300000000	0.00000000000000	0.10684500000000	-13.29272100000000	87.10390700000001	10.30967900000000	0.39756200000000	0.00000000000000	-0.07653200000000	0.00000000000000	27.03943500000000	0.00000000000000	0.00000000000000	7.02958300000000	0.00000000000000	
10.98663000000000	-53.60064300000000	754.17108199999996	52.67694900000000	0.15296900000000	0.00000000000000	0.10660300000000	-12.98078000000000	92.42749100000000	10.41896500000000	0.39936300000000	0.00000000000000	-0.07690000000000	0.00000000000000	26.82850600000000	0.00000000000000	0.00000000000000	7.18795600000000	0.00000000000000	
10.98831700000000	-54.04081400000000	749.85209099999997	52.00125600000000	0.15235400000000	0.00000000000000	0.10635700000000	-12.54385900000000	97.67612099999999	10.46018100000000	0.40113900000000	0.00000000000000	-0.07724800000000	0.00000000000000	26.61963200000000	0.00000000000000	0.00000000000000	7.30827300000000	0.00000000000000	
10.98995800000000	-54.49749600000000	745.48300800000004	51.31369600000000	0.15174900000000	0.00000000000000	0.10610600000000	-12.00296800000000	102.90162500000000	10.44421000000000	0.40289300000000	0.00000000000000	-0.07757900000000	0.00000000000000	26.41291700000000	0.00000000000000	0.00000000000000	7.39702300000000	0.00000000000000	
10.99163000000000	-54.97004200000000	741.06225900000004	50.61500900000000	0.15115500000000	0.00000000000000	0.10585100000000	-11.37778300000000	108.15502400000000	10.38137900000000	0.40462700000000	0.00000000000000	-0.07789200000000	0.00000000000000	26.20844200000000	0.00000000000000	0.00000000000000	7.46039700000000	0.00000000000000	
10.99329300000000	-55.45771400000000	736.58803300000000	49.90593700000000	0.15057400000000	0.00000000000000	0.10559300000000	-10.68556800000000	113.48299400000001	10.28080800000000	0.40634400000000	0.00000000000000	-0.07819100000000	0.00000000000000	26.00626600000000	0.00000000000000	0.00000000000000	7.50387100000000	0.00000000000000	
10.99496200000000	-55.95969000000000	732.05829200000005	49.18722700000000	0.15000500000000	0.00000000000000	0.10533000000000	-9.94046600000000	118.92525400000000	10.14996000000000	0.40804400000000	0.00000000000000	-0.07847600000000	0.00000000000000	25.80642200000000	0.00000000000000	0.00000000000000	7.53190800000000	0.00000000000000	
10.99662900000000	-56.47505800000000	727.47078099999999	48.45962400000000	0.14945100000000	0.00000000000000	0.10506400000000	-9.15314400000000	124.51290700000000	9.99439400000000	0.40972800000000	0.00000000000000	-0.07874900000000	0.00000000000000	25.60892200000000	0.00000000000000	0.00000000000000	7.54779200000000	0.00000000000000	
10.99829900000000	-57.00282100000000	722.82304499999998	47.72387400000000	0.14891200000000	0.00000000000000	0.10479400000000	-8.33077200000000	130.26769899999999	9.81770800000000	0.41139500000000	0.00000000000000	-0.07901000000000	0.00000000000000	25.41375200000000	0.00000000000000	0.00000000000000	7.55357700000000	0.00000000000000	
10.99995900000000	-57.54189800000000	718.11243999999999	46.98071700000000	0.14838800000000	0.00000000000000	0.10452100000000	-7.47725400000000	136.20206999999999	9.62163500000000	0.41304600000000	0.00000000000000	-0.07926000000000	0.00000000000000	25.22087300000000	0.00000000000000	0.00000000000000	7.55013000000000	0.00000000000000	
11.00162800000000	-58.09111900000000	713.33615399999996	46.23088900000000	0.14788100000000	0.00000000000000	0.10424500000000	-6.59367000000000	142.31987000000001	9.40626700000000	0.41467900000000	0.00000000000000	-0.07950100000000	0.00000000000000	25.03022400000000	0.00000000000000	0.00000000000000	7.53726100000000	0.00000000000000	
11.00329200000000	-58.64923300000000	708.49121600000001	45.47511800000000	0.14739100000000	0.00000000000000	0.10396600000000	-5.67884200000000	148.61753800000000	9.17035000000000	0.41629400000000	0.00000000000000	-0.07973200000000	0.00000000000000	24.84172000000000	0.00000000000000	0.00000000000000	7.51390500000000	0.00000000000000	
11.00496000000000	-59.21490600000000	703.57452200000000	44.71412200000000	0.14691900000000	0.00000000000000	0.10368400000000	-4.72996400000000	155.08559600000001	8.91163900000000	0.41788900000000	0.00000000000000	-0.07995600000000	0.00000000000000	24.65525000000000	0.00000000000000	0.00000000000000	7.47833400000000	0.00000000000000	
11.00662600000000	-59.78672300000000	698.58284700000002	43.94860800000000	0.14646400000000	0.00000000000000	0.10339900000000	-3.74324400000000	161.71027000000001	8.62725600000000	0.41946200000000	0.00000000000000	-0.08017100000000	0.00000000000000	24.47068400000000	0.00000000000000	0.00000000000000	7.42838400000000	0.00000000000000	
11.00829300000000	-60.36319200000000	693.51286800000003	43.17927200000000	0.14602900000000	0.00000000000000	0.10311200000000	-2.71449300000000	168.47509500000001	8.31402800000000	0.42101300000000	0.00000000000000	-0.08038000000000	0.00000000000000	24.28786800000000	0.00000000000000	0.00000000000000	7.36167200000000	0.00000000000000	
11.00996400000000	-60.94274500000000	688.36118499999998	42.40679300000000	0.14561200000000	0.00000000000000	0.10282300000000	-1.63964300000000	175.36240699999999	7.96879400000000	0.42253900000000	0.00000000000000	-0.08058200000000	0.00000000000000	24.10662600000000	0.00000000000000	0.00000000000000	7.27579300000000	0.00000000000000	
11.01163200000000	-61.52374000000000	683.12434199999996	41.63183600000000	0.14521400000000	0.00000000000000	0.10253200000000	-0.51515800000000	182.35461100000001	7.58865000000000	0.42403900000000	0.00000000000000	-0.08077800000000	0.00000000000000	23.92676300000000	0.00000000000000	0.00000000000000	7.16848200000000	0.00000000000000	
11.01329600000000	-62.10446500000000	677.79884700000002	40.85505000000000	0.14483600000000	0.00000000000000	0.10223900000000	0.66166200000000	189.43518800000001	7.17114200000000	0.42551100000000	0.00000000000000	-0.08096900000000	0.00000000000000	23.74806600000000	0.00000000000000	0.00000000000000	7.03774400000000	0.00000000000000	
11.01496600000000	-62.68314400000000	672.38120200000003	40.07706300000000	0.14447700000000	0.00000000000000	0.10194400000000	1.89249800000000	196.58941999999999	6.71438500000000	0.42695200000000	0.00000000000000	-0.08115400000000	0.00000000000000	23.57030100000000	0.00000000000000	0.00000000000000	6.88194100000000	0.00000000000000	
11.01662500000000	-63.25793800000000	666.86792000000003	39.29848800000000	0.14413700000000	0.00000000000000	0.10164800000000	3.17792900000000	203.80482699999999	6.21712900000000	0.42836100000000	0.00000000000000	-0.08133500000000	0.00000000000000	23.39321900000000	0.00000000000000	0.00000000000000	6.69983800000000	0.00000000000000	
11.01829000000000	-63.82694900000000	661.25555499999996	38.51991500000000	0.14381700000000	0.00000000000000	0.10135100000000	4.51744100000000	211.07134700000000	5.67876900000000	0.42973500000000	0.00000000000000	-0.08151100000000	0.00000000000000	23.21655500000000	0.00000000000000	0.00000000000000	6.49062200000000	0.00000000000000	
